# xmcd
#
# Track frame offsets: 
#        150
#        14635
#        38532
#        61690
#        81782
#        103007
#        135682
#
# Disc length: 2145 seconds
#
# Revision: 0
# Processed by: cddbd v1.5.1PL0 Copyright (c) Steve Scherf et al.
# Submitted via: ExactAudioCopy v0.95a4
#
DISCID=50085f07
DTITLE=Linda Clifford - Here's My Love
DYEAR=1979
DGENRE=Disco
TTITLE0=King For A Night
TTITLE1=Here's My Love
TTITLE2=I Just Wanna Wanna
TTITLE3=Bailin' Out
TTITLE4=Never Gonna Stop
TTITLE5=Lonely Night
TTITLE6=Repossessed
EXTD=
EXTT0=
EXTT1=
EXTT2=
EXTT3=
EXTT4=
EXTT5=
EXTT6=
PLAYORDER=
